<svg width="117" height="70" fill="none" xmlns="http://www.w3.org/2000/svg"><path d="M103.996 44.304c.817 6.034-2.034 10.687-7.413 11.7-5.947 1.124-11.09-2.013-12.956-7.707-.08-.24-.131-.483-.22-.823-1.537.646-2.965 1.387-4.58 1.63-2.002.297-3.984.264-5.967-.037-.85-.13-1.25.1-1.597.951-1.424 3.486-3.148 6.809-5.722 9.596-.554.598-.493 1.287-.202 1.927.277.617.92.55 1.47.493 1.156-.12 2.035-1.052 2.279-2.195.362-1.678.484-3.414 1.203-5.02.559-1.248 1.493-2.085 2.56-2.812.568-.387 1.188-.464 1.804-.072.615.392.61 1.019.512 1.621a10.622 10.622 0 01-2.002 4.715c-.634.846-1.263 1.697-1.935 2.606.944.32 1.569-.096 2.147-.507.869-.617 1.686-1.31 2.523-1.975.319-.253.662-.43 1.047-.177.343.23.3.588.212.937-.611 2.381-4.717 4.543-6.967 3.615-.47-.191-.77-.158-1.151.115a5.982 5.982 0 01-1.113.631c-2.049.89-3.514.435-4.867-1.544-.959.588-1.922 1.224-3.115 1.224-1.353 0-2.128-.722-2.466-2.147-1.334 1.592-2.513 3.409-4.942 1.936-.996.98-1.916 2.08-3.27 2.606-2.113.823-3.602.015-4.063-2.233-.047-.239 0-.526-.258-.693-.62.511-1.203 1.085-1.87 1.52-2.142 1.397-4.834.034-4.951-2.548-.127-2.821 1.08-5.14 3.053-6.995 1.442-1.358 2.777-1.205 4.862.244.423-1.42.893-2.812 1.25-4.232 1.076-4.294 3.857-7.22 7.342-9.587.954-.645 1.776-.248 1.893.918.076.727.09 1.468-.216 2.171-1.71 3.954-3.283 7.976-5.684 11.576-.76 1.143-1.512 2.31-2.602 3.175-.353.277-.423.607-.432 1.013-.015.65-.1 1.3-.07 1.946.027.66-.297 1.55.436 1.899.785.377 1.48-.278 2.03-.775 1.019-.928 1.79-2.008 2.043-3.476.456-2.649 1.729-4.782 4.223-5.953 1.015-.478 2.044-.684 2.927.488.502-.46 1.108-.97 1.728-.378.578.55.193 1.224-.098 1.793-.874 1.721-1.386 3.505-1.165 5.46 1.38.087 3.316-1.166 3.448-2.366.408-3.797 1.832-7.268 3.185-10.763.075-.196.136-.402.225-.68-2.377-1.008-4.763-1.305-7.225-.616-1.033.292-1.85.76-.704 1.95-.865.665-1.39.135-1.78-.391-.517-.698-.48-1.502.145-2.128.869-.87 1.959-1.339 3.157-1.568 2.156-.407 4.242-.082 6.262.67.878.324 1.39.224 1.818-.675.46-.975 1.103-1.846 1.855-2.625.7-.722 1.536-.961 2.443-.588.869.358.705 1.224.639 1.927-.122 1.32-.353 2.625-.555 4.069 3.411.234 6.7.459 9.701-1.459.55-.349.991-.803 1.372-1.334.305-.42.723-.636 1.221-.368.428.225.63.674.46 1.105-.901 2.252.09 4.035 1.325 5.756 1.424 1.985 3.401 3.147 5.722 3.606 4.721.937 9.015-1.67 10.156-6.044.212-.818.221-1.635.122-2.443-.131-1.1-.634-1.87-1.916-1.745-1.301.124-2.518-.316-3.74-.699-.516-.162-.948-.468-.906-1.095.042-.612.488-.898 1.02-1.004 1.512-.296 3.02-.157 4.321.655 1.287.804 2.593.785 3.758.139 5.388-2.97 9.156-7.134 9.842-13.704.484-4.647.004-9.05-2.086-13.23-2.504-5.006-7.798-7.932-13.266-7.382a1.554 1.554 0 00-1.006.478c-.404.416-.958.564-1.498.67-1.085.215-1.517-.25-1.325-1.368.395-2.276-.986-4.475-3.241-5.03-2.076-.512-4.204-.574-6.332-.56-.49 0-1.166.12-1.213-.602-.046-.717.616-.908 1.156-.947 2.598-.177 5.22-.224 7.68.741 2.274.89 3.34 2.922 4.135 5.203 2.076-.201 4.251-.35 6.379.08 4.538.919 7.812 3.635 10.015 7.713 2.401 4.437 2.847 9.18 2.462 14.191-.46 5.996-3.528 10.223-7.953 13.714-1.424 1.123-3.035 1.888-4.933 2.123l.005.004zM45.6 57.687c-.386-.396-.832-.425-1.057-.865-.597-1.176-1.26-1.32-2.1-.383-1.104 1.23-1.846 2.692-2.053 4.376-.07.564-.07 1.176.55 1.463.587.277 1.07-.015 1.484-.44 1.198-1.239 2.161-2.659 3.18-4.155l-.004.005zm8.573-13.612c-3.241 2.41-4.5 5.565-5.745 11.48 2.532-3.624 4.073-7.574 5.745-11.48zm4.265 11.719c-.488-.545-.916-.76-1.583-.368-1.644.97-2.87 3.639-2.457 5.89 1.424-1.898 2.946-3.476 4.04-5.527v.005zm11.148-7.349c-.367-.378-.69-.526-1.189-.411-.93 2.295-1.808 4.647-2.325 7.138.53-.64.968-1.314 1.353-2.022a39.257 39.257 0 002.16-4.71v.005zm3.81 5.537c-1.217 1-1.706 2.027-1.645 3.29.794-.909 1.283-1.908 1.645-3.29zm-3.96-7.947c1.127.488 1.46-.043 1.282-1.989-.465.717-.84 1.305-1.282 1.99zM23.549 42.492c.662.64 1.485.86 2.269 1.172.432.172.7-.01 1.015-.282 2.518-2.123 5.468-2.884 8.672-2.707 1.916.105 2.555 1.306 1.667 3.089-.869 1.75-2.508 2.3-4.242 2.42-1.644.114-3.316.22-4.951-.163-.71-.168-1.184.038-1.564.722-1.635 2.93-1.767 6.12-1.447 9.324.183 1.855 2.424 3.218 4.815 3.256 1.174.019 1.569.626 1.052 1.616-1.278 2.443-.46 5.063 1.987 6.364 1.085.578 2.278.65 3.458.798.357.043.78-.143 1.047.273-.968 1.11-3.274 1.396-5.078.631-2.776-1.176-4.11-3.868-3.861-7.856-.583-.191-1.198-.344-1.776-.593-2.992-1.276-4.181-3.992-3.692-7.99.3-2.462.662-4.872 2.09-7.071-.84-.445-1.588-.827-2.32-1.238-.49-.273-.696.114-.954.372-4.34 4.275-9.682 5.619-15.479 5.14-4.378-.358-7.107-4.987-6.018-9.39 1.372-5.523 7.052-7.698 10.805-7.067 2.988.502 5.242 2.568 7.239 4.796 1.034 1.152 2.048 2.29 3.406 3.203.935-1.257 1.367-2.72 1.555-4.179.258-2.003.24-4.045-.033-6.072-.329-2.4-1.574-4.15-3.542-5.427-.573-.373-1.142-.75-1.724-1.105-2.885-1.769-3.542-3.194-2.997-6.545.864-5.308 4.707-8.679 9.982-8.731 1.485-.015 2.974-.081 4.435.315 2.334.627 4.519 2.884 4.735 4.944.315 2.98-.822 5.16-3.33 6.58-1.264.717-2.575 1.056-4.022 1.013-2.645-.081-4.547-2.787-3.575-5.322.592-1.549 1.626-2.84 3.124-3.633.536-.282 1.221-.521 1.56.196.361.76-.371.884-.865 1.118-1.56.742-2.64 2.592-2.372 4.027.273 1.458.902 2.013 2.363 1.946 1.663-.077 3.19-.66 4.411-1.798 1.466-1.368 1.635-4.906-.94-6.647-5.054-3.418-12.387-.334-13.688 5.79-.597 2.812-.423 3.262 1.902 4.859.846.578 1.687 1.162 2.546 1.721 2.904 1.88 3.918 4.786 4.148 8.057.235 3.318-.047 6.574-1.681 9.567-.076.139-.09.32-.132.498v.01zm-2.903.55c-1.071-1.08-2.25-1.755-3.04-2.845-1.418-1.956-3.33-3.3-5.336-4.528a3.967 3.967 0 00-1.668-.583c-2.668-.278-7.009 1.468-8.24 5.063-1.249 3.663.616 7.287 4.412 7.646 5.21.492 9.855-1.019 13.872-4.753zm8.244 1.22c3.378.372 6.553.1 6.788-1.899-2.015-.411-5.327.478-6.788 1.898z" fill="#000"/><path d="M80.771 15.63c.869.44 1.766.502 2.612.736.639.182 1.057.024 1.33-.602.168-.392.403-.76.62-1.133.258-.454.516-.985 1.155-.741.573.22.61.78.568 1.315-.032.425-.263.827-.117 1.343 1.503.115 3.011.22 4.458-.483.484-.234 1.09-.588 1.419.163.29.655-.23 1.076-.705 1.353-1.376.813-2.913.942-4.444.827-1.09-.086-1.611.335-2.142 1.305-1.33 2.425-2.354 4.959-3.312 7.737.705-.139 1.057-.57 1.475-.86.456-.316.888-.67 1.358-.967.596-.373 1.216-.994 1.954-.41.728.573.522 1.424.291 2.16-.502 1.607-1.09 3.18-1.62 4.777-.188.56-.46 1.128-.198 1.74 1.846.512 3.96-.765 4.303-2.62.578-3.146 2.288-5.632 4.379-7.904.413-.449.915-.788 1.493-.96 1.1-.33 1.945.286 1.992 1.458.075 1.994-.573 3.739-1.85 5.235-1.17 1.368-2.397 2.678-3.825 3.893.569.994 1.358.889 2.19.573.934-.358 1.61-1.104 2.376-1.721.414-.33.865-.665 1.353-.187.447.436.273.942.033 1.43-1.536 3.127-5.332 3.816-7.817 1.368-.798.425-1.573.999-2.438 1.267-1.221.377-2.565.602-3.593-.479-.977-1.028-.578-2.275-.207-3.423.446-1.387.991-2.735 1.381-4.179-2.231 1.822-4.641 3.428-6.022 6.096-.179.345-.348.698-.564 1.014-.427.636-1.057.75-1.686.43-.644-.334-.682-.994-.437-1.587.338-.818.78-1.592 1.085-2.448-1.372 1.1-2.349 2.587-3.73 3.639-.578.44-1.146.894-1.766 1.262-.78.464-1.63.53-2.42.024-.747-.478-.808-1.277-.747-2.075.155-1.999.888-3.859 1.382-5.776 1.136-4.418 3.715-8.143 5.613-12.38-2.33-1.467-4.773-2.792-7.624-3.079-.925-.095-1.87-.028-2.805-.004a4.94 4.94 0 00-2.954 1.066c-1.067.832-1.043 1.788.15 2.443 1.738.952 3.64 1.41 5.59 1.674.211.028.428.004.639.023.39.034.85.082.879.565.032.588-.475.645-.902.66-2.27.062-4.491-.225-6.629-1.038-.39-.148-.742-.42-1.085-.674-1.691-1.258-1.771-3.338-.197-4.767 2.217-2.013 4.89-1.99 7.591-1.683 2.71.306 5.144 1.463 7.45 2.869.757.459 1.198.339 1.682-.345.597-.841 1.245-1.659 2.11-2.233.418-.277.916-.545 1.432-.23.564.34.578.919.508 1.497-.132 1.081-.667 2.033-1.006 3.075l-.009-.029zm2.56 2.52c-.794-.191-1.484-.263-2.095-.526-1.16-.502-1.733-.057-2.269 1.009-1.09 2.156-2.447 4.222-4.18 5.829-1.753 1.616-2.345 3.638-2.895 5.728-.352 1.334-1.019 2.639-.765 4.528 5.34-4.739 9.776-9.75 12.204-16.563v-.005zm12.585 5.843c-1.743 1.812-3.011 3.686-3.777 6.182 2.373-1.84 3.96-4.026 3.777-6.182zM49.255 31.356c.76-1.052 1.761-1.874 2.048-3.237.164-.784.639-1.2 1.404-.287 1.062 1.267 1.945 1.081 2.824-.334 1.31-2.114 2.907-3.85 5.604-3.955.92-.033 1.761.23 2.165 1.076.419.89.348 1.87-.267 2.702-1.414 1.912-3.486 2.591-5.67 2.802-1.034.1-1.424.516-1.626 1.405-.249 1.1-.996 2.21.052 3.276.813.827 1.729.56 2.598.133a16 16 0 003.32-2.165c.438-.373.978-.708 1.471-.187.456.483.09 1-.24 1.387-1.31 1.525-2.86 2.725-4.814 3.237-3.096.808-5.43-1.545-4.712-4.71.16-.712.376-1.41.592-2.214-.54-.258-1.1-.526-1.767-.841-.85 2.113-2.16 3.973-3.217 5.986-.348.665-.69 1.377-1.612 1.143-.958-.244-.775-1.08-.831-1.808-.09-1.18.3-2.3.423-3.614-1.057 1.1-1.668 2.38-2.654 3.366a32.792 32.792 0 01-2.683 2.386c-1.16.932-2.424 1.267-3.8.612-1.367-.65-2.03-1.784-1.973-3.333.01-.215 0-.425 0-.885-.935.794-1.738 1.44-2.504 2.133-.672.607-1.372 1.181-2.18 1.563-1.512.718-3.307-.057-3.199-1.515.24-3.247.719-6.493 3.453-8.74 1.132-.933 2.367-1.679 3.932-1.588 1.193.067 2.287.268 2.95 1.353.4.1.456-.248.648-.382.357-.24.728-.316 1.066-.053.301.234.301.631.179.961-.3.808-.648 1.597-.968 2.396-.596 1.487-1.122 2.993-1.104 4.628.015 1.41.954 1.999 2.119 1.229 3.312-2.18 5.985-4.949 7.338-8.827.169-.483.376-.951.925-.903.597.047.808.554.855 1.119.127 1.558-.225 3.093-.131 4.68l-.014.005zM37.529 28.53c-1.348-1.793-2.461-1.984-4.195-.884-2.8 1.779-2.969 4.743-3.363 7.66 3.1-1.607 5.515-3.926 7.558-6.776zm19.453.163c1.851-.273 3.354-.746 4.547-1.922.339-.33.757-.823.4-1.372-.371-.57-.977-.474-1.49-.244-1.522.679-2.527 1.893-3.457 3.533v.005z" fill="#000"/><path d="M103.996 44.304c.817 6.034-2.034 10.687-7.413 11.7-5.947 1.124-11.09-2.013-12.956-7.707-.08-.24-.131-.483-.22-.823-1.537.646-2.965 1.387-4.58 1.63-2.002.297-3.984.264-5.967-.037-.85-.13-1.25.1-1.597.951-1.424 3.486-3.148 6.809-5.722 9.596-.554.598-.493 1.287-.202 1.927.277.617.92.55 1.47.493 1.156-.12 2.035-1.052 2.279-2.195.362-1.678.484-3.414 1.203-5.02.559-1.248 1.493-2.085 2.56-2.812.568-.387 1.188-.464 1.804-.072.615.392.61 1.019.512 1.621a10.622 10.622 0 01-2.002 4.715c-.634.846-1.263 1.697-1.935 2.606.944.32 1.569-.096 2.147-.507.869-.617 1.686-1.31 2.523-1.975.319-.253.662-.43 1.047-.177.343.23.3.588.212.937-.611 2.381-4.717 4.543-6.967 3.615-.47-.191-.77-.158-1.151.115a5.982 5.982 0 01-1.113.631c-2.049.89-3.514.435-4.867-1.544-.959.588-1.922 1.224-3.115 1.224-1.353 0-2.128-.722-2.466-2.147-1.334 1.592-2.513 3.409-4.942 1.936-.996.98-1.916 2.08-3.27 2.606-2.113.823-3.602.015-4.063-2.233-.047-.239 0-.526-.258-.693-.62.511-1.203 1.085-1.87 1.52-2.142 1.397-4.834.034-4.951-2.548-.127-2.821 1.08-5.14 3.053-6.995 1.442-1.358 2.777-1.205 4.862.244.423-1.42.893-2.812 1.25-4.232 1.076-4.294 3.857-7.22 7.342-9.587.954-.645 1.776-.248 1.893.918.076.727.09 1.468-.216 2.171-1.71 3.954-3.283 7.976-5.684 11.576-.76 1.143-1.512 2.31-2.602 3.175-.353.277-.423.607-.432 1.013-.015.65-.1 1.3-.07 1.946.027.66-.297 1.55.436 1.899.785.377 1.48-.278 2.03-.775 1.019-.928 1.79-2.008 2.043-3.476.456-2.649 1.729-4.782 4.223-5.953 1.015-.478 2.044-.684 2.927.488.502-.46 1.108-.97 1.728-.378.578.55.193 1.224-.098 1.793-.874 1.721-1.386 3.505-1.165 5.46 1.38.087 3.316-1.166 3.448-2.366.408-3.797 1.832-7.268 3.185-10.763.075-.196.136-.402.225-.68-2.377-1.008-4.763-1.305-7.225-.616-1.033.292-1.85.76-.704 1.95-.865.665-1.39.135-1.78-.391-.517-.698-.48-1.502.145-2.128.869-.87 1.959-1.339 3.157-1.568 2.156-.407 4.242-.082 6.262.67.878.324 1.39.224 1.818-.675.46-.975 1.103-1.846 1.855-2.625.7-.722 1.536-.961 2.443-.588.869.358.705 1.224.639 1.927-.122 1.32-.353 2.625-.555 4.069 3.411.234 6.7.459 9.701-1.459.55-.349.991-.803 1.372-1.334.305-.42.723-.636 1.221-.368.428.225.63.674.46 1.105-.901 2.252.09 4.035 1.325 5.756 1.424 1.985 3.401 3.147 5.722 3.606 4.721.937 9.015-1.67 10.156-6.044.212-.818.221-1.635.122-2.443-.131-1.1-.634-1.87-1.916-1.745-1.301.124-2.518-.316-3.74-.699-.516-.162-.948-.468-.906-1.095.042-.612.488-.898 1.02-1.004 1.512-.296 3.02-.157 4.321.655 1.287.804 2.593.785 3.758.139 5.388-2.97 9.156-7.134 9.842-13.704.484-4.647.004-9.05-2.086-13.23-2.504-5.006-7.798-7.932-13.266-7.382a1.554 1.554 0 00-1.006.478c-.404.416-.958.564-1.498.67-1.085.215-1.517-.25-1.325-1.368.395-2.276-.986-4.475-3.241-5.03-2.076-.512-4.204-.574-6.332-.56-.49 0-1.166.12-1.213-.602-.046-.717.616-.908 1.156-.947 2.598-.177 5.22-.224 7.68.741 2.274.89 3.34 2.922 4.135 5.203 2.076-.201 4.251-.35 6.379.08 4.538.919 7.812 3.635 10.015 7.713 2.401 4.437 2.847 9.18 2.462 14.191-.46 5.996-3.528 10.223-7.953 13.714-1.424 1.123-3.035 1.888-4.933 2.123l.005.004zM45.6 57.687c-.386-.396-.832-.425-1.057-.865-.597-1.176-1.26-1.32-2.1-.383-1.104 1.23-1.846 2.692-2.053 4.376-.07.564-.07 1.176.55 1.463.587.277 1.07-.015 1.484-.44 1.198-1.239 2.161-2.659 3.18-4.155l-.004.005zm8.573-13.612c-3.241 2.41-4.5 5.565-5.745 11.48 2.532-3.624 4.073-7.574 5.745-11.48zm4.265 11.719c-.488-.545-.916-.76-1.583-.368-1.644.97-2.87 3.639-2.457 5.89 1.424-1.898 2.946-3.476 4.04-5.527v.005zm11.148-7.349c-.367-.378-.69-.526-1.189-.411-.93 2.295-1.808 4.647-2.325 7.138.53-.64.968-1.314 1.353-2.022a39.257 39.257 0 002.16-4.71v.005zm3.81 5.537c-1.217 1-1.706 2.027-1.645 3.29.794-.909 1.283-1.908 1.645-3.29zm-3.96-7.947c1.127.488 1.46-.043 1.282-1.989-.465.717-.84 1.305-1.282 1.99zM23.549 42.492c.662.64 1.485.86 2.269 1.172.432.172.7-.01 1.015-.282 2.518-2.123 5.468-2.884 8.672-2.707 1.916.105 2.555 1.306 1.667 3.089-.869 1.75-2.508 2.3-4.242 2.42-1.644.114-3.316.22-4.951-.163-.71-.168-1.184.038-1.564.722-1.635 2.93-1.767 6.12-1.447 9.324.183 1.855 2.424 3.218 4.815 3.256 1.174.019 1.569.626 1.052 1.616-1.278 2.443-.46 5.063 1.987 6.364 1.085.578 2.278.65 3.458.798.357.043.78-.143 1.047.273-.968 1.11-3.274 1.396-5.078.631-2.776-1.176-4.11-3.868-3.861-7.856-.583-.191-1.198-.344-1.776-.593-2.992-1.276-4.181-3.992-3.692-7.99.3-2.462.662-4.872 2.09-7.071-.84-.445-1.588-.827-2.32-1.238-.49-.273-.696.114-.954.372-4.34 4.275-9.682 5.619-15.479 5.14-4.378-.358-7.107-4.987-6.018-9.39 1.372-5.523 7.052-7.698 10.805-7.067 2.988.502 5.242 2.568 7.239 4.796 1.034 1.152 2.048 2.29 3.406 3.203.935-1.257 1.367-2.72 1.555-4.179.258-2.003.24-4.045-.033-6.072-.329-2.4-1.574-4.15-3.542-5.427-.573-.373-1.142-.75-1.724-1.105-2.885-1.769-3.542-3.194-2.997-6.545.864-5.308 4.707-8.679 9.982-8.731 1.485-.015 2.974-.081 4.435.315 2.334.627 4.519 2.884 4.735 4.944.315 2.98-.822 5.16-3.33 6.58-1.264.717-2.575 1.056-4.022 1.013-2.645-.081-4.547-2.787-3.575-5.322.592-1.549 1.626-2.84 3.124-3.633.536-.282 1.221-.521 1.56.196.361.76-.371.884-.865 1.118-1.56.742-2.64 2.592-2.372 4.027.273 1.458.902 2.013 2.363 1.946 1.663-.077 3.19-.66 4.411-1.798 1.466-1.368 1.635-4.906-.94-6.647-5.054-3.418-12.387-.334-13.688 5.79-.597 2.812-.423 3.262 1.902 4.859.846.578 1.687 1.162 2.546 1.721 2.904 1.88 3.918 4.786 4.148 8.057.235 3.318-.047 6.574-1.681 9.567-.076.139-.09.32-.132.498v.01zm-2.903.55c-1.071-1.08-2.25-1.755-3.04-2.845-1.418-1.956-3.33-3.3-5.336-4.528a3.967 3.967 0 00-1.668-.583c-2.668-.278-7.009 1.468-8.24 5.063-1.249 3.663.616 7.287 4.412 7.646 5.21.492 9.855-1.019 13.872-4.753zm8.244 1.22c3.378.372 6.553.1 6.788-1.899-2.015-.411-5.327.478-6.788 1.898z"/><path d="M80.771 15.63c.869.44 1.766.502 2.612.736.639.182 1.057.024 1.33-.602.168-.392.403-.76.62-1.133.258-.454.516-.985 1.155-.741.573.22.61.78.568 1.315-.032.425-.263.827-.117 1.343 1.503.115 3.011.22 4.458-.483.484-.234 1.09-.588 1.419.163.29.655-.23 1.076-.705 1.353-1.376.813-2.913.942-4.444.827-1.09-.086-1.611.335-2.142 1.305-1.33 2.425-2.354 4.959-3.312 7.737.705-.139 1.057-.57 1.475-.86.456-.316.888-.67 1.358-.967.596-.373 1.216-.994 1.954-.41.728.573.522 1.424.291 2.16-.502 1.607-1.09 3.18-1.62 4.777-.188.56-.46 1.128-.198 1.74 1.846.512 3.96-.765 4.303-2.62.578-3.146 2.288-5.632 4.379-7.904.413-.449.915-.788 1.493-.96 1.1-.33 1.945.286 1.992 1.458.075 1.994-.573 3.739-1.85 5.235-1.17 1.368-2.397 2.678-3.825 3.893.569.994 1.358.889 2.19.573.934-.358 1.61-1.104 2.376-1.721.414-.33.865-.665 1.353-.187.447.436.273.942.033 1.43-1.536 3.127-5.332 3.816-7.817 1.368-.798.425-1.573.999-2.438 1.267-1.221.377-2.565.602-3.593-.479-.977-1.028-.578-2.275-.207-3.423.446-1.387.991-2.735 1.381-4.179-2.231 1.822-4.641 3.428-6.022 6.096-.179.345-.348.698-.564 1.014-.427.636-1.057.75-1.686.43-.644-.334-.682-.994-.437-1.587.338-.818.78-1.592 1.085-2.448-1.372 1.1-2.349 2.587-3.73 3.639-.578.44-1.146.894-1.766 1.262-.78.464-1.63.53-2.42.024-.747-.478-.808-1.277-.747-2.075.155-1.999.888-3.859 1.382-5.776 1.136-4.418 3.715-8.143 5.613-12.38-2.33-1.467-4.773-2.792-7.624-3.079-.925-.095-1.87-.028-2.805-.004a4.94 4.94 0 00-2.954 1.066c-1.067.832-1.043 1.788.15 2.443 1.738.952 3.64 1.41 5.59 1.674.211.028.428.004.639.023.39.034.85.082.879.565.032.588-.475.645-.902.66-2.27.062-4.491-.225-6.629-1.038-.39-.148-.742-.42-1.085-.674-1.691-1.258-1.771-3.338-.197-4.767 2.217-2.013 4.89-1.99 7.591-1.683 2.71.306 5.144 1.463 7.45 2.869.757.459 1.198.339 1.682-.345.597-.841 1.245-1.659 2.11-2.233.418-.277.916-.545 1.432-.23.564.34.578.919.508 1.497-.132 1.081-.667 2.033-1.006 3.075l-.009-.029zm2.56 2.52c-.794-.191-1.484-.263-2.095-.526-1.16-.502-1.733-.057-2.269 1.009-1.09 2.156-2.447 4.222-4.18 5.829-1.753 1.616-2.345 3.638-2.895 5.728-.352 1.334-1.019 2.639-.765 4.528 5.34-4.739 9.776-9.75 12.204-16.563v-.005zm12.585 5.843c-1.743 1.812-3.011 3.686-3.777 6.182 2.373-1.84 3.96-4.026 3.777-6.182zM49.255 31.356c.76-1.052 1.761-1.874 2.048-3.237.164-.784.639-1.2 1.404-.287 1.062 1.267 1.945 1.081 2.824-.334 1.31-2.114 2.907-3.85 5.604-3.955.92-.033 1.761.23 2.165 1.076.419.89.348 1.87-.267 2.702-1.414 1.912-3.486 2.591-5.67 2.802-1.034.1-1.424.516-1.626 1.405-.249 1.1-.996 2.21.052 3.276.813.827 1.729.56 2.598.133a16 16 0 003.32-2.165c.438-.373.978-.708 1.471-.187.456.483.09 1-.24 1.387-1.31 1.525-2.86 2.725-4.814 3.237-3.096.808-5.43-1.545-4.712-4.71.16-.712.376-1.41.592-2.214-.54-.258-1.1-.526-1.767-.841-.85 2.113-2.16 3.973-3.217 5.986-.348.665-.69 1.377-1.612 1.143-.958-.244-.775-1.08-.831-1.808-.09-1.18.3-2.3.423-3.614-1.057 1.1-1.668 2.38-2.654 3.366a32.792 32.792 0 01-2.683 2.386c-1.16.932-2.424 1.267-3.8.612-1.367-.65-2.03-1.784-1.973-3.333.01-.215 0-.425 0-.885-.935.794-1.738 1.44-2.504 2.133-.672.607-1.372 1.181-2.18 1.563-1.512.718-3.307-.057-3.199-1.515.24-3.247.719-6.493 3.453-8.74 1.132-.933 2.367-1.679 3.932-1.588 1.193.067 2.287.268 2.95 1.353.4.1.456-.248.648-.382.357-.24.728-.316 1.066-.053.301.234.301.631.179.961-.3.808-.648 1.597-.968 2.396-.596 1.487-1.122 2.993-1.104 4.628.015 1.41.954 1.999 2.119 1.229 3.312-2.18 5.985-4.949 7.338-8.827.169-.483.376-.951.925-.903.597.047.808.554.855 1.119.127 1.558-.225 3.093-.131 4.68l-.014.005zM37.529 28.53c-1.348-1.793-2.461-1.984-4.195-.884-2.8 1.779-2.969 4.743-3.363 7.66 3.1-1.607 5.515-3.926 7.558-6.776zm19.453.163c1.851-.273 3.354-.746 4.547-1.922.339-.33.757-.823.4-1.372-.371-.57-.977-.474-1.49-.244-1.522.679-2.527 1.893-3.457 3.533v.005z"/></svg>